<?xml version="1.0" standalone="no"?>
<!DOCTYPE svg PUBLIC "-//W3C//DTD SVG 20010904//EN"
 "http://www.w3.org/TR/2001/REC-SVG-20010904/DTD/svg10.dtd">
<svg version="1.0" xmlns="http://www.w3.org/2000/svg"
 width="938.000000pt" height="938.000000pt" viewBox="0 0 938.000000 938.000000"
 preserveAspectRatio="xMidYMid meet">
<metadata>
Created by potrace 1.13, written by Peter Selinger 2001-2015
</metadata>
<g transform="translate(0.000000,938.000000) scale(0.100000,-0.100000)"
fill="#000000" stroke="none">
<path d="M2357 8203 c-4 -3 -7 -261 -7 -572 0 -339 -4 -572 -10 -581 -8 -13
-88 -16 -587 -20 l-578 -5 0 -2335 0 -2335 577 -5 c317 -3 580 -9 585 -13 4
-5 10 -268 13 -585 l5 -577 1750 0 1750 0 3 575 c2 526 3 576 19 588 13 9 146
12 585 12 l568 0 0 1148 c0 631 3 1157 6 1169 l6 23 582 2 581 3 3 583 2 582
585 0 585 0 0 585 0 585 -585 0 -585 0 0 -585 0 -585 -580 0 c-562 0 -580 1
-590 19 -6 13 -10 215 -10 585 l0 566 -568 0 c-439 0 -572 3 -585 13 -16 11
-17 61 -19 587 l-3 575 -1746 3 c-960 1 -1749 -1 -1752 -5z m3501 -2925 l-3
-583 -580 0 -580 0 -3 570 c-1 314 0 576 3 583 3 9 130 12 585 12 l580 0 -2
-582z"/>
<path d="M8212 4108 l3 -583 583 -3 582 -2 0 585 0 585 -585 0 -585 0 2 -582z"/>
</g>
</svg>
